<svg xmlns="http://www.w3.org/2000/svg" width="760" height="232" viewBox="0 0 760 232" role="img" aria-labelledby="title desc">
  <title id="title">Elide compatibility pass rates</title>
  <desc id="desc">Latest pass rate by compliance suite.</desc>
  <rect width="760" height="232" fill="#ffffff"/>
  <text x="32" y="32" font-family="system-ui, -apple-system, Segoe UI, sans-serif" font-size="20" font-weight="700" fill="#1f2328">Latest compatibility</text>
  <text x="32" y="69" font-family="system-ui, -apple-system, Segoe UI, sans-serif" font-size="13" fill="#24292f">cpython-core</text>
  <rect x="210" y="54" width="430" height="18" rx="3" fill="#eaeef2"/>
  <rect x="210" y="54" width="391.40" height="18" rx="3" fill="#198754"/>
  <text x="658" y="68" font-family="system-ui, -apple-system, Segoe UI, sans-serif" font-size="12" fill="#57606a">91.0%</text>
  <text x="32" y="103" font-family="system-ui, -apple-system, Segoe UI, sans-serif" font-size="13" fill="#24292f">javac-jtreg</text>
  <rect x="210" y="88" width="430" height="18" rx="3" fill="#eaeef2"/>
  <rect x="210" y="88" width="407.92" height="18" rx="3" fill="#198754"/>
  <text x="658" y="102" font-family="system-ui, -apple-system, Segoe UI, sans-serif" font-size="12" fill="#57606a">94.9%</text>
  <text x="32" y="137" font-family="system-ui, -apple-system, Segoe UI, sans-serif" font-size="13" fill="#24292f">node-api</text>
  <rect x="210" y="122" width="430" height="18" rx="3" fill="#eaeef2"/>
  <rect x="210" y="122" width="12.10" height="18" rx="3" fill="#198754"/>
  <text x="658" y="136" font-family="system-ui, -apple-system, Segoe UI, sans-serif" font-size="12" fill="#57606a">2.8%</text>
  <text x="32" y="171" font-family="system-ui, -apple-system, Segoe UI, sans-serif" font-size="13" fill="#24292f">test262</text>
  <rect x="210" y="156" width="430" height="18" rx="3" fill="#eaeef2"/>
  <rect x="210" y="156" width="355.90" height="18" rx="3" fill="#198754"/>
  <text x="658" y="170" font-family="system-ui, -apple-system, Segoe UI, sans-serif" font-size="12" fill="#57606a">82.8%</text>
  <text x="32" y="205" font-family="system-ui, -apple-system, Segoe UI, sans-serif" font-size="13" fill="#24292f">wpt-wintertc</text>
  <rect x="210" y="190" width="430" height="18" rx="3" fill="#eaeef2"/>
  <rect x="210" y="190" width="156.11" height="18" rx="3" fill="#198754"/>
  <text x="658" y="204" font-family="system-ui, -apple-system, Segoe UI, sans-serif" font-size="12" fill="#57606a">36.3%</text>
</svg>
